<mxfile host="app.diagrams.net" modified="2023-11-15T11:49:10.205Z" agent="Mozilla/5.0 (Windows NT 10.0; Win64; x64) AppleWebKit/537.36 (KHTML, like Gecko) Chrome/116.0.0.0 Safari/537.36 OPR/102.0.0.0 (Edition std-1)" etag="kwf_vmYAttpB7cLov4ss" version="22.1.1" type="device">
  <diagram name="Página-1" id="7lmAKVeljsOKqAwC6pII">
    <mxGraphModel dx="2318" dy="1343" grid="1" gridSize="10" guides="1" tooltips="1" connect="1" arrows="1" fold="1" page="1" pageScale="1" pageWidth="827" pageHeight="1169" math="0" shadow="0">
      <root>
        <mxCell id="0" />
        <mxCell id="1" parent="0" />
        <mxCell id="ZcWlkyPO4FyNo30Vh1I5-1" value="" style="whiteSpace=wrap;html=1;aspect=fixed;" parent="1" vertex="1">
          <mxGeometry x="217" y="350" width="740" height="740" as="geometry" />
        </mxCell>
        <mxCell id="ZcWlkyPO4FyNo30Vh1I5-2" value="" style="rounded=1;whiteSpace=wrap;html=1;fillColor=#dae8fc;strokeColor=#6c8ebf;" parent="1" vertex="1">
          <mxGeometry x="339.5" y="550" width="495" height="400" as="geometry" />
        </mxCell>
        <mxCell id="ZcWlkyPO4FyNo30Vh1I5-5" value="" style="shape=flexArrow;endArrow=classic;html=1;rounded=0;width=16;endSize=10.27;fillColor=#f8cecc;strokeColor=#b85450;" parent="1" edge="1">
          <mxGeometry width="50" height="50" relative="1" as="geometry">
            <mxPoint x="407" y="470" as="sourcePoint" />
            <mxPoint x="437" y="536.52" as="targetPoint" />
          </mxGeometry>
        </mxCell>
        <mxCell id="ZcWlkyPO4FyNo30Vh1I5-8" value="Pantalla para crear usuario o iniciar sesión" style="ellipse;shape=cloud;whiteSpace=wrap;html=1;fillColor=#6666FF;fontColor=#FFFFFF;" parent="1" vertex="1">
          <mxGeometry x="237" y="350" width="310" height="110" as="geometry" />
        </mxCell>
        <mxCell id="ZcWlkyPO4FyNo30Vh1I5-9" value="Crear Usuario" style="rounded=1;whiteSpace=wrap;html=1;fillColor=#e1d5e7;strokeColor=#9673a6;" parent="1" vertex="1">
          <mxGeometry x="377" y="705" width="150" height="90" as="geometry" />
        </mxCell>
        <mxCell id="ZcWlkyPO4FyNo30Vh1I5-11" value="Iniciar Sesión" style="rounded=1;whiteSpace=wrap;html=1;fillColor=#e1d5e7;strokeColor=#9673a6;" parent="1" vertex="1">
          <mxGeometry x="647" y="705" width="150" height="90" as="geometry" />
        </mxCell>
        <mxCell id="ZcWlkyPO4FyNo30Vh1I5-12" value="" style="whiteSpace=wrap;html=1;aspect=fixed;" parent="1" vertex="1">
          <mxGeometry x="217" y="1300" width="740" height="740" as="geometry" />
        </mxCell>
        <mxCell id="ZcWlkyPO4FyNo30Vh1I5-13" value="&lt;font style=&quot;font-size: 24px;&quot;&gt;Crear Usuario&lt;/font&gt;" style="rounded=1;whiteSpace=wrap;html=1;fillColor=#dae8fc;strokeColor=#6c8ebf;" parent="1" vertex="1">
          <mxGeometry x="333" y="1330" width="530" height="110" as="geometry" />
        </mxCell>
        <mxCell id="ZcWlkyPO4FyNo30Vh1I5-14" value="Nombre" style="rounded=0;whiteSpace=wrap;html=1;fillColor=#f8cecc;strokeColor=#b85450;" parent="1" vertex="1">
          <mxGeometry x="283" y="1520" width="250" height="40" as="geometry" />
        </mxCell>
        <mxCell id="ZcWlkyPO4FyNo30Vh1I5-15" value="Correo electrónico" style="rounded=0;whiteSpace=wrap;html=1;fillColor=#f8cecc;strokeColor=#b85450;" parent="1" vertex="1">
          <mxGeometry x="283" y="1620" width="250" height="40" as="geometry" />
        </mxCell>
        <mxCell id="ZcWlkyPO4FyNo30Vh1I5-16" value="Contraseña" style="rounded=0;whiteSpace=wrap;html=1;fillColor=#f8cecc;strokeColor=#b85450;" parent="1" vertex="1">
          <mxGeometry x="283" y="1710" width="250" height="40" as="geometry" />
        </mxCell>
        <mxCell id="ZcWlkyPO4FyNo30Vh1I5-19" value="&lt;font style=&quot;font-size: 17px;&quot;&gt;Crear usuario&lt;/font&gt;" style="rounded=1;whiteSpace=wrap;html=1;fillColor=#e1d5e7;strokeColor=#9673a6;" parent="1" vertex="1">
          <mxGeometry x="642" y="1700" width="280" height="60" as="geometry" />
        </mxCell>
        <mxCell id="ZcWlkyPO4FyNo30Vh1I5-20" value="Botón para crear el usuario&lt;br&gt;&amp;nbsp;y que se guarde en la base de datos" style="ellipse;shape=cloud;whiteSpace=wrap;html=1;fillColor=#6666FF;strokeColor=#23445d;fontColor=#F7F7F7;" parent="1" vertex="1">
          <mxGeometry x="443" y="1880" width="310" height="110" as="geometry" />
        </mxCell>
        <mxCell id="ZcWlkyPO4FyNo30Vh1I5-21" value="" style="shape=flexArrow;endArrow=classic;html=1;rounded=0;fillColor=#f8cecc;strokeColor=#b85450;" parent="1" edge="1">
          <mxGeometry width="50" height="50" relative="1" as="geometry">
            <mxPoint x="637" y="1870" as="sourcePoint" />
            <mxPoint x="667" y="1810" as="targetPoint" />
          </mxGeometry>
        </mxCell>
        <mxCell id="ZcWlkyPO4FyNo30Vh1I5-24" value="" style="whiteSpace=wrap;html=1;aspect=fixed;" parent="1" vertex="1">
          <mxGeometry x="1177" y="350" width="740" height="740" as="geometry" />
        </mxCell>
        <mxCell id="ZcWlkyPO4FyNo30Vh1I5-25" value="&lt;font style=&quot;font-size: 24px;&quot;&gt;Iniciar Sesión&lt;/font&gt;" style="rounded=1;whiteSpace=wrap;html=1;fillColor=#dae8fc;strokeColor=#6c8ebf;" parent="1" vertex="1">
          <mxGeometry x="1293" y="380" width="530" height="110" as="geometry" />
        </mxCell>
        <mxCell id="ZcWlkyPO4FyNo30Vh1I5-26" value="Correo Electrónico" style="rounded=0;whiteSpace=wrap;html=1;fillColor=#f8cecc;strokeColor=#b85450;" parent="1" vertex="1">
          <mxGeometry x="1243" y="570" width="250" height="40" as="geometry" />
        </mxCell>
        <mxCell id="ZcWlkyPO4FyNo30Vh1I5-27" value="Contraseña" style="rounded=0;whiteSpace=wrap;html=1;fillColor=#f8cecc;strokeColor=#b85450;" parent="1" vertex="1">
          <mxGeometry x="1243" y="660" width="250" height="40" as="geometry" />
        </mxCell>
        <mxCell id="ZcWlkyPO4FyNo30Vh1I5-29" value="&lt;font style=&quot;font-size: 17px;&quot;&gt;Iniciar Sesion&lt;/font&gt;" style="rounded=1;whiteSpace=wrap;html=1;fillColor=#e1d5e7;strokeColor=#9673a6;" parent="1" vertex="1">
          <mxGeometry x="1593" y="610" width="280" height="60" as="geometry" />
        </mxCell>
        <mxCell id="ZcWlkyPO4FyNo30Vh1I5-30" value="Botón para iniciar sesión." style="ellipse;shape=cloud;whiteSpace=wrap;html=1;fillColor=#3333FF;fontColor=#FFFFFF;" parent="1" vertex="1">
          <mxGeometry x="1427" y="780" width="310" height="110" as="geometry" />
        </mxCell>
        <mxCell id="ZcWlkyPO4FyNo30Vh1I5-31" value="" style="shape=flexArrow;endArrow=classic;html=1;rounded=0;fillColor=#f8cecc;strokeColor=#b85450;" parent="1" edge="1">
          <mxGeometry width="50" height="50" relative="1" as="geometry">
            <mxPoint x="1617" y="770" as="sourcePoint" />
            <mxPoint x="1647" y="710" as="targetPoint" />
          </mxGeometry>
        </mxCell>
        <mxCell id="ZcWlkyPO4FyNo30Vh1I5-32" value="" style="shape=flexArrow;endArrow=classic;html=1;rounded=0;fillColor=#e1d5e7;strokeColor=#9673a6;" parent="1" edge="1">
          <mxGeometry width="50" height="50" relative="1" as="geometry">
            <mxPoint x="987" y="670" as="sourcePoint" />
            <mxPoint x="1147" y="670" as="targetPoint" />
          </mxGeometry>
        </mxCell>
        <mxCell id="ZcWlkyPO4FyNo30Vh1I5-41" value="" style="shape=flexArrow;endArrow=classic;startArrow=classic;html=1;rounded=0;fillColor=#e1d5e7;strokeColor=#9673a6;" parent="1" edge="1">
          <mxGeometry width="100" height="100" relative="1" as="geometry">
            <mxPoint x="607" y="1280" as="sourcePoint" />
            <mxPoint x="607" y="1120" as="targetPoint" />
          </mxGeometry>
        </mxCell>
        <mxCell id="ZcWlkyPO4FyNo30Vh1I5-43" value="En caso de error al crear el usr&lt;br&gt;saltará una alerta y en caso caso contrario,&lt;br&gt;te mandará al inicio." style="ellipse;shape=cloud;whiteSpace=wrap;html=1;fillColor=#6666FF;fontColor=#FFFFFF;" parent="1" vertex="1">
          <mxGeometry x="633" y="1540" width="324" height="150" as="geometry" />
        </mxCell>
        <mxCell id="ZcWlkyPO4FyNo30Vh1I5-44" value="" style="whiteSpace=wrap;html=1;aspect=fixed;" parent="1" vertex="1">
          <mxGeometry x="2087" y="1290" width="740" height="740" as="geometry" />
        </mxCell>
        <mxCell id="ZcWlkyPO4FyNo30Vh1I5-49" value="Creamos un botón para cada Cifrado" style="ellipse;shape=cloud;whiteSpace=wrap;html=1;fillColor=#3333FF;fontColor=#FFFFFF;" parent="1" vertex="1">
          <mxGeometry x="2313" y="1700" width="310" height="110" as="geometry" />
        </mxCell>
        <mxCell id="ZcWlkyPO4FyNo30Vh1I5-52" value="" style="shape=flexArrow;endArrow=classic;html=1;rounded=0;width=16.842105263157894;endSize=17.075;fillColor=#e1d5e7;strokeColor=#9673a6;endWidth=77.89473684210526;" parent="1" edge="1">
          <mxGeometry width="50" height="50" relative="1" as="geometry">
            <mxPoint x="1927" y="1100" as="sourcePoint" />
            <mxPoint x="2067" y="1250" as="targetPoint" />
          </mxGeometry>
        </mxCell>
        <mxCell id="ZcWlkyPO4FyNo30Vh1I5-56" value="&lt;font style=&quot;font-size: 23px;&quot;&gt;Cifrados&lt;/font&gt;" style="rounded=1;whiteSpace=wrap;html=1;fillColor=#dae8fc;strokeColor=#6c8ebf;" parent="1" vertex="1">
          <mxGeometry x="2127" y="1330" width="660" height="60" as="geometry" />
        </mxCell>
        <mxCell id="ZcWlkyPO4FyNo30Vh1I5-57" value="&lt;font style=&quot;font-size: 15px;&quot;&gt;Cifrado Simétrico&lt;/font&gt;" style="shape=tape;whiteSpace=wrap;html=1;fillColor=#dae8fc;strokeColor=#6c8ebf;" parent="1" vertex="1">
          <mxGeometry x="2153" y="1510" width="174" height="120" as="geometry" />
        </mxCell>
        <mxCell id="ZcWlkyPO4FyNo30Vh1I5-58" value="&lt;font style=&quot;font-size: 15px;&quot;&gt;Cifrado Asimétrico&lt;/font&gt;" style="shape=tape;whiteSpace=wrap;html=1;fillColor=#dae8fc;strokeColor=#6c8ebf;" parent="1" vertex="1">
          <mxGeometry x="2373" y="1510" width="190" height="120" as="geometry" />
        </mxCell>
        <mxCell id="ZcWlkyPO4FyNo30Vh1I5-59" value="&lt;font style=&quot;font-size: 15px;&quot;&gt;Cifrado Híbrido&lt;/font&gt;" style="shape=tape;whiteSpace=wrap;html=1;fillColor=#dae8fc;strokeColor=#6c8ebf;" parent="1" vertex="1">
          <mxGeometry x="2617" y="1510" width="166" height="120" as="geometry" />
        </mxCell>
        <mxCell id="ZcWlkyPO4FyNo30Vh1I5-60" value="&lt;font style=&quot;font-size: 23px;&quot;&gt;Equipo&lt;/font&gt;" style="rounded=0;whiteSpace=wrap;html=1;" parent="1" vertex="1">
          <mxGeometry x="2087" y="1970" width="740" height="60" as="geometry" />
        </mxCell>
        <mxCell id="ZcWlkyPO4FyNo30Vh1I5-61" value="" style="shape=flexArrow;endArrow=classic;html=1;rounded=0;endWidth=78.75;endSize=16.162499999999998;fillColor=#e1d5e7;strokeColor=#9673a6;" parent="1" edge="1">
          <mxGeometry width="50" height="50" relative="1" as="geometry">
            <mxPoint x="2057" y="1628.75" as="sourcePoint" />
            <mxPoint x="1847" y="1629.13" as="targetPoint" />
          </mxGeometry>
        </mxCell>
        <mxCell id="ZcWlkyPO4FyNo30Vh1I5-62" value="" style="shape=flexArrow;endArrow=classic;html=1;rounded=0;endWidth=78.75;endSize=16.162499999999998;fillColor=#e1d5e7;strokeColor=#9673a6;" parent="1" edge="1">
          <mxGeometry width="50" height="50" relative="1" as="geometry">
            <mxPoint x="2467.37" y="2060" as="sourcePoint" />
            <mxPoint x="2467.37" y="2240" as="targetPoint" />
          </mxGeometry>
        </mxCell>
        <mxCell id="ZcWlkyPO4FyNo30Vh1I5-63" value="" style="shape=flexArrow;endArrow=classic;html=1;rounded=0;endWidth=78.75;endSize=16.162499999999998;fillColor=#e1d5e7;strokeColor=#9673a6;" parent="1" edge="1">
          <mxGeometry width="50" height="50" relative="1" as="geometry">
            <mxPoint x="2882" y="1650" as="sourcePoint" />
            <mxPoint x="3122" y="1650" as="targetPoint" />
          </mxGeometry>
        </mxCell>
        <mxCell id="ZcWlkyPO4FyNo30Vh1I5-64" value="" style="whiteSpace=wrap;html=1;aspect=fixed;" parent="1" vertex="1">
          <mxGeometry x="1081" y="1310" width="740" height="740" as="geometry" />
        </mxCell>
        <mxCell id="ZcWlkyPO4FyNo30Vh1I5-65" value="&lt;font style=&quot;font-size: 24px;&quot;&gt;Cifrado Simétrico&lt;/font&gt;" style="rounded=1;whiteSpace=wrap;html=1;fillColor=#dae8fc;strokeColor=#6c8ebf;" parent="1" vertex="1">
          <mxGeometry x="1197" y="1340" width="530" height="110" as="geometry" />
        </mxCell>
        <mxCell id="ZcWlkyPO4FyNo30Vh1I5-66" value="Texto a Cifrar" style="rounded=0;whiteSpace=wrap;html=1;fillColor=#f8cecc;strokeColor=#b85450;" parent="1" vertex="1">
          <mxGeometry x="1147" y="1530" width="250" height="40" as="geometry" />
        </mxCell>
        <mxCell id="ZcWlkyPO4FyNo30Vh1I5-67" value="Generar y Descargar Clave" style="rounded=0;whiteSpace=wrap;html=1;fillColor=#e1d5e7;strokeColor=#9673a6;" parent="1" vertex="1">
          <mxGeometry x="1147" y="1595" width="250" height="40" as="geometry" />
        </mxCell>
        <mxCell id="ZcWlkyPO4FyNo30Vh1I5-68" value="Texto Cifrado" style="rounded=0;whiteSpace=wrap;html=1;fillColor=#f8cecc;strokeColor=#b85450;" parent="1" vertex="1">
          <mxGeometry x="1147" y="1760" width="250" height="40" as="geometry" />
        </mxCell>
        <mxCell id="ZcWlkyPO4FyNo30Vh1I5-72" value="Al pulsar este botón se te genera&lt;br&gt;un fichero con la clave totalmente random&lt;br&gt;y se descarga en tu ordenador." style="ellipse;shape=cloud;whiteSpace=wrap;html=1;fillColor=#6666FF;fontColor=#FFFFFF;" parent="1" vertex="1">
          <mxGeometry x="1484" y="1520" width="324" height="150" as="geometry" />
        </mxCell>
        <mxCell id="YrRsndR7CJR56Su1CA2o-3" value="" style="shape=flexArrow;endArrow=classic;html=1;rounded=0;fillColor=#f8cecc;strokeColor=#b85450;" parent="1" source="ZcWlkyPO4FyNo30Vh1I5-72" edge="1">
          <mxGeometry width="50" height="50" relative="1" as="geometry">
            <mxPoint x="1393" y="1690" as="sourcePoint" />
            <mxPoint x="1423" y="1630" as="targetPoint" />
            <Array as="points">
              <mxPoint x="1457" y="1630" />
            </Array>
          </mxGeometry>
        </mxCell>
        <mxCell id="YrRsndR7CJR56Su1CA2o-4" value="" style="endArrow=none;html=1;rounded=0;entryX=1.002;entryY=0.554;entryDx=0;entryDy=0;exitX=0;exitY=0.554;exitDx=0;exitDy=0;entryPerimeter=0;exitPerimeter=0;" parent="1" source="ZcWlkyPO4FyNo30Vh1I5-64" target="ZcWlkyPO4FyNo30Vh1I5-64" edge="1">
          <mxGeometry width="50" height="50" relative="1" as="geometry">
            <mxPoint x="1417" y="1810" as="sourcePoint" />
            <mxPoint x="1467" y="1760" as="targetPoint" />
            <Array as="points">
              <mxPoint x="1497" y="1720" />
            </Array>
          </mxGeometry>
        </mxCell>
        <mxCell id="YrRsndR7CJR56Su1CA2o-5" value="Texto Cifrado" style="rounded=1;whiteSpace=wrap;html=1;fillColor=#f8cecc;strokeColor=#b85450;" parent="1" vertex="1">
          <mxGeometry x="1147" y="1660" width="250" height="40" as="geometry" />
        </mxCell>
        <mxCell id="YrRsndR7CJR56Su1CA2o-7" value="Subir Archivo con contraseña" style="shape=parallelogram;perimeter=parallelogramPerimeter;whiteSpace=wrap;html=1;fixedSize=1;fillColor=#dae8fc;strokeColor=#6c8ebf;" parent="1" vertex="1">
          <mxGeometry x="1177" y="1830" width="190" height="40" as="geometry" />
        </mxCell>
        <mxCell id="YrRsndR7CJR56Su1CA2o-9" value="Descifrar" style="rounded=0;whiteSpace=wrap;html=1;fillColor=#e1d5e7;strokeColor=#9673a6;" parent="1" vertex="1">
          <mxGeometry x="1212" y="1900" width="120" height="60" as="geometry" />
        </mxCell>
        <mxCell id="YrRsndR7CJR56Su1CA2o-10" value="Texto Descifrado" style="rounded=0;whiteSpace=wrap;html=1;fillColor=#f8cecc;strokeColor=#b85450;" parent="1" vertex="1">
          <mxGeometry x="1493" y="1840" width="274" height="60" as="geometry" />
        </mxCell>
        <mxCell id="YrRsndR7CJR56Su1CA2o-12" value="" style="whiteSpace=wrap;html=1;aspect=fixed;" parent="1" vertex="1">
          <mxGeometry x="3177" y="1290" width="740" height="740" as="geometry" />
        </mxCell>
        <mxCell id="YrRsndR7CJR56Su1CA2o-13" value="&lt;font style=&quot;font-size: 24px;&quot;&gt;Cifrado Asimétrico&lt;/font&gt;" style="rounded=1;whiteSpace=wrap;html=1;fillColor=#dae8fc;strokeColor=#6c8ebf;" parent="1" vertex="1">
          <mxGeometry x="3293" y="1320" width="530" height="110" as="geometry" />
        </mxCell>
        <mxCell id="YrRsndR7CJR56Su1CA2o-14" value="Texto a Cifrar" style="rounded=0;whiteSpace=wrap;html=1;fillColor=#f8cecc;strokeColor=#b85450;" parent="1" vertex="1">
          <mxGeometry x="3241" y="1460" width="254" height="40" as="geometry" />
        </mxCell>
        <mxCell id="YrRsndR7CJR56Su1CA2o-15" value="Mostrar anillo de confianza" style="rounded=0;whiteSpace=wrap;html=1;fillColor=#e1d5e7;strokeColor=#9673a6;" parent="1" vertex="1">
          <mxGeometry x="3241" y="1520" width="254" height="40" as="geometry" />
        </mxCell>
        <mxCell id="YrRsndR7CJR56Su1CA2o-16" value="Fichero con texto encriptado" style="rounded=0;whiteSpace=wrap;html=1;fillColor=#e1d5e7;strokeColor=#9673a6;" parent="1" vertex="1">
          <mxGeometry x="3243" y="1740" width="250" height="40" as="geometry" />
        </mxCell>
        <mxCell id="YrRsndR7CJR56Su1CA2o-17" value="Utilizamos la clave pública del receptor,&lt;br&gt;después de pulsar el botón&lt;br&gt;&amp;nbsp;se guardará el fichero con&lt;br&gt;el texto cifrado." style="ellipse;shape=cloud;whiteSpace=wrap;html=1;fillColor=#6666FF;fontColor=#FFFFFF;" parent="1" vertex="1">
          <mxGeometry x="3597" y="1440" width="287" height="120" as="geometry" />
        </mxCell>
        <mxCell id="YrRsndR7CJR56Su1CA2o-18" value="" style="shape=flexArrow;endArrow=classic;html=1;rounded=0;fillColor=#f8cecc;strokeColor=#b85450;" parent="1" source="YrRsndR7CJR56Su1CA2o-17" edge="1">
          <mxGeometry width="50" height="50" relative="1" as="geometry">
            <mxPoint x="3657" y="1594.71" as="sourcePoint" />
            <mxPoint x="3557" y="1620" as="targetPoint" />
            <Array as="points">
              <mxPoint x="3617" y="1590" />
              <mxPoint x="3607" y="1594.71" />
            </Array>
          </mxGeometry>
        </mxCell>
        <mxCell id="YrRsndR7CJR56Su1CA2o-19" value="" style="endArrow=none;html=1;rounded=0;entryX=1.002;entryY=0.554;entryDx=0;entryDy=0;exitX=0;exitY=0.554;exitDx=0;exitDy=0;entryPerimeter=0;exitPerimeter=0;" parent="1" source="YrRsndR7CJR56Su1CA2o-12" target="YrRsndR7CJR56Su1CA2o-12" edge="1">
          <mxGeometry width="50" height="50" relative="1" as="geometry">
            <mxPoint x="3513" y="1790" as="sourcePoint" />
            <mxPoint x="3563" y="1740" as="targetPoint" />
            <Array as="points">
              <mxPoint x="3593" y="1700" />
            </Array>
          </mxGeometry>
        </mxCell>
        <mxCell id="YrRsndR7CJR56Su1CA2o-22" value="Clave Privada" style="rounded=0;whiteSpace=wrap;html=1;fillColor=#f8cecc;strokeColor=#b85450;" parent="1" vertex="1">
          <mxGeometry x="3243" y="1810" width="254" height="40" as="geometry" />
        </mxCell>
        <mxCell id="YrRsndR7CJR56Su1CA2o-23" value="Texto Descifrado" style="rounded=0;whiteSpace=wrap;html=1;fillColor=#f8cecc;strokeColor=#b85450;" parent="1" vertex="1">
          <mxGeometry x="3597" y="1800" width="274" height="60" as="geometry" />
        </mxCell>
        <mxCell id="YrRsndR7CJR56Su1CA2o-27" value="Clave Publica de la persona destinada" style="rounded=0;whiteSpace=wrap;html=1;fillColor=#f8cecc;strokeColor=#b85450;" parent="1" vertex="1">
          <mxGeometry x="3241" y="1580" width="254" height="40" as="geometry" />
        </mxCell>
        <mxCell id="YrRsndR7CJR56Su1CA2o-28" value="Encriptar" style="rounded=1;whiteSpace=wrap;html=1;fillColor=#e1d5e7;strokeColor=#9673a6;" parent="1" vertex="1">
          <mxGeometry x="3268" y="1635" width="200" height="30" as="geometry" />
        </mxCell>
        <mxCell id="YrRsndR7CJR56Su1CA2o-29" value="Desencriptar" style="rounded=1;whiteSpace=wrap;html=1;fillColor=#e1d5e7;strokeColor=#9673a6;" parent="1" vertex="1">
          <mxGeometry x="3270" y="1880" width="200" height="30" as="geometry" />
        </mxCell>
        <mxCell id="YrRsndR7CJR56Su1CA2o-43" value="" style="whiteSpace=wrap;html=1;aspect=fixed;" parent="1" vertex="1">
          <mxGeometry x="2084" y="2260" width="740" height="740" as="geometry" />
        </mxCell>
        <mxCell id="YrRsndR7CJR56Su1CA2o-44" value="&lt;font style=&quot;font-size: 24px;&quot;&gt;Cifrado Híbrido&amp;nbsp;&lt;/font&gt;" style="rounded=1;whiteSpace=wrap;html=1;fillColor=#dae8fc;strokeColor=#6c8ebf;" parent="1" vertex="1">
          <mxGeometry x="2203" y="2290" width="530" height="110" as="geometry" />
        </mxCell>
        <mxCell id="YrRsndR7CJR56Su1CA2o-45" value="Texto a Cifrar" style="rounded=0;whiteSpace=wrap;html=1;fillColor=#f8cecc;strokeColor=#b85450;" parent="1" vertex="1">
          <mxGeometry x="2153" y="2430" width="250" height="40" as="geometry" />
        </mxCell>
        <mxCell id="YrRsndR7CJR56Su1CA2o-47" value="Texto Cifrado" style="rounded=0;whiteSpace=wrap;html=1;fillColor=#f8cecc;strokeColor=#b85450;" parent="1" vertex="1">
          <mxGeometry x="2153" y="2710" width="250" height="40" as="geometry" />
        </mxCell>
        <mxCell id="YrRsndR7CJR56Su1CA2o-48" value="Se cifra el texto de forma simétrica,&lt;br&gt;para después cifrar esa clave de forma asimétrica&lt;br&gt;y genera el texto cifrado." style="ellipse;shape=cloud;whiteSpace=wrap;html=1;fillColor=#6666FF;fontColor=#FFFFFF;" parent="1" vertex="1">
          <mxGeometry x="2487" y="2450" width="337" height="150" as="geometry" />
        </mxCell>
        <mxCell id="YrRsndR7CJR56Su1CA2o-49" value="" style="shape=flexArrow;endArrow=classic;html=1;rounded=0;fillColor=#f8cecc;strokeColor=#b85450;" parent="1" source="YrRsndR7CJR56Su1CA2o-48" edge="1">
          <mxGeometry width="50" height="50" relative="1" as="geometry">
            <mxPoint x="2399" y="2640" as="sourcePoint" />
            <mxPoint x="2429" y="2580" as="targetPoint" />
            <Array as="points">
              <mxPoint x="2463" y="2580" />
            </Array>
          </mxGeometry>
        </mxCell>
        <mxCell id="YrRsndR7CJR56Su1CA2o-50" value="" style="endArrow=none;html=1;rounded=0;entryX=1.002;entryY=0.554;entryDx=0;entryDy=0;exitX=0;exitY=0.554;exitDx=0;exitDy=0;entryPerimeter=0;exitPerimeter=0;" parent="1" source="YrRsndR7CJR56Su1CA2o-43" target="YrRsndR7CJR56Su1CA2o-43" edge="1">
          <mxGeometry width="50" height="50" relative="1" as="geometry">
            <mxPoint x="2423" y="2760" as="sourcePoint" />
            <mxPoint x="2473" y="2710" as="targetPoint" />
            <Array as="points">
              <mxPoint x="2503" y="2670" />
            </Array>
          </mxGeometry>
        </mxCell>
        <mxCell id="YrRsndR7CJR56Su1CA2o-51" value="Texto Cifrado" style="rounded=1;whiteSpace=wrap;html=1;fillColor=#f8cecc;strokeColor=#b85450;" parent="1" vertex="1">
          <mxGeometry x="2153" y="2600" width="250" height="40" as="geometry" />
        </mxCell>
        <mxCell id="YrRsndR7CJR56Su1CA2o-53" value="Descifrar" style="rounded=0;whiteSpace=wrap;html=1;fillColor=#e1d5e7;strokeColor=#9673a6;" parent="1" vertex="1">
          <mxGeometry x="2148" y="2840" width="264" height="40" as="geometry" />
        </mxCell>
        <mxCell id="YrRsndR7CJR56Su1CA2o-54" value="Texto Descifrado" style="rounded=0;whiteSpace=wrap;html=1;fillColor=#f8cecc;strokeColor=#b85450;" parent="1" vertex="1">
          <mxGeometry x="2499" y="2760" width="274" height="60" as="geometry" />
        </mxCell>
        <mxCell id="YrRsndR7CJR56Su1CA2o-56" value="Clave adecuada" style="rounded=0;whiteSpace=wrap;html=1;fillColor=#f8cecc;strokeColor=#b85450;" parent="1" vertex="1">
          <mxGeometry x="2153" y="2770" width="250" height="40" as="geometry" />
        </mxCell>
        <mxCell id="YrRsndR7CJR56Su1CA2o-58" value="" style="rounded=0;whiteSpace=wrap;html=1;fillColor=#e1d5e7;strokeColor=#9673a6;" parent="1" vertex="1">
          <mxGeometry x="2148" y="2480" width="260" height="110" as="geometry" />
        </mxCell>
        <mxCell id="YrRsndR7CJR56Su1CA2o-55" value="Cifrar con clave simétrica (random)" style="rounded=0;whiteSpace=wrap;html=1;fillColor=#e1d5e7;strokeColor=#9673a6;" parent="1" vertex="1">
          <mxGeometry x="2153" y="2490" width="250" height="40" as="geometry" />
        </mxCell>
        <mxCell id="YrRsndR7CJR56Su1CA2o-46" value="Cifrar clave simétrica de forma asimétrica.&amp;nbsp;" style="rounded=0;whiteSpace=wrap;html=1;fillColor=#e1d5e7;strokeColor=#9673a6;" parent="1" vertex="1">
          <mxGeometry x="2153" y="2540" width="250" height="40" as="geometry" />
        </mxCell>
        <mxCell id="720SYD_JFpCHQdj6nUji-1" value="Cifrados SAD" style="rounded=1;whiteSpace=wrap;html=1;fillColor=#b1ddf0;strokeColor=#10739e;" vertex="1" parent="1">
          <mxGeometry x="527" y="585" width="120" height="60" as="geometry" />
        </mxCell>
      </root>
    </mxGraphModel>
  </diagram>
</mxfile>
